<?xml version="1.0" encoding="UTF-8"?>
<svg xmlns:svg="http://www.w3.org/2000/svg" xmlns="http://www.w3.org/2000/svg" width="32px" height="32px" viewBox="0 0 32 32" version="1.1" id="SVGRoot">
  <g id="layer1">
    <path style="opacity:1;fill:#ffffff;fill-opacity:1;stroke:#000000;stroke-width:1.3;stroke-linecap:butt;stroke-linejoin:miter;stroke-opacity:1;stroke-miterlimit:4;stroke-dasharray:none" d="m 13.466084,10.267728 -4.9000003,8.4 4.9000003,4.9 8.4,-4.9 z" id="path1382" />
    <path style="fill:none;stroke:#000000;stroke-width:1.38305581;stroke-linecap:round;stroke-linejoin:miter;stroke-miterlimit:4;stroke-dasharray:none;stroke-opacity:1" d="M 16.266084,15.780798 V 6.273173" id="path1384" />
    <path style="fill:#0900ff;fill-opacity:1;stroke:#000000;stroke-width:0.69999999px;stroke-linecap:butt;stroke-linejoin:miter;stroke-opacity:1" d="m 19.755061,15.949366 c 0.338507,-0.291827 1.855175,-0.641827 2.951371,-0.256834 1.096196,0.384993 1.772863,1.504993 2.146228,2.438113 0.373365,0.93312 0.443365,1.679787 0.443421,2.554729 5.5e-5,0.874942 -0.06995,1.878275 -0.396474,2.252053 -0.326529,0.373779 -0.909861,0.117112 -1.271753,-0.303212 -0.361891,-0.420325 -0.501891,-1.003657 -0.653553,-1.680336 -0.151662,-0.67668 -0.314995,-1.446678 -0.62999,-2.169821 -0.314995,-0.723144 -0.781111,-1.399011 -1.434931,-1.85441 -0.65382,-0.455399 -1.492827,-0.688456 -1.154319,-0.980282 z" id="path1405" />
  </g>
</svg>
